<svg width="380" height="50" viewBox="0 0 380 50" fill="none" xmlns="http://www.w3.org/2000/svg">
<rect width="380" height="50" fill="#9D7612"/>
<rect x="3" y="3" width="374" height="44" rx="3" fill="#9D7612"/>
<path d="M145.017 31H142.381L146.398 19.3636H149.568L153.58 31H150.943L148.028 22.0227H147.938L145.017 31ZM144.852 26.4261H151.08V28.3466H144.852V26.4261ZM155.221 19.3636L158.034 28.2045H158.142L160.96 19.3636H163.687L159.676 31H156.505L152.488 19.3636H155.221ZM165.139 31H162.502L166.519 19.3636H169.69L173.701 31H171.065L168.15 22.0227H168.059L165.139 31ZM164.974 26.4261H171.201V28.3466H164.974V26.4261ZM184.427 19.3636V31H182.302L177.239 23.6761H177.154V31H174.694V19.3636H176.853L181.875 26.6818H181.978V19.3636H184.427ZM196.318 23.4375H193.83C193.784 23.1155 193.691 22.8295 193.551 22.5795C193.411 22.3258 193.231 22.1098 193.011 21.9318C192.792 21.7538 192.538 21.6174 192.25 21.5227C191.966 21.428 191.657 21.3807 191.324 21.3807C190.722 21.3807 190.197 21.5303 189.75 21.8295C189.303 22.125 188.957 22.5568 188.71 23.125C188.464 23.6894 188.341 24.375 188.341 25.1818C188.341 26.0114 188.464 26.7083 188.71 27.2727C188.96 27.8371 189.309 28.2633 189.756 28.5511C190.203 28.839 190.72 28.983 191.307 28.983C191.636 28.983 191.941 28.9394 192.222 28.8523C192.506 28.7652 192.758 28.6383 192.977 28.4716C193.197 28.3011 193.379 28.0947 193.523 27.8523C193.671 27.6098 193.773 27.3333 193.83 27.0227L196.318 27.0341C196.254 27.5682 196.093 28.0833 195.835 28.5795C195.582 29.072 195.239 29.5133 194.807 29.9034C194.379 30.2898 193.868 30.5966 193.273 30.8239C192.682 31.0473 192.013 31.1591 191.267 31.1591C190.229 31.1591 189.301 30.9242 188.483 30.4545C187.669 29.9848 187.025 29.3049 186.551 28.4148C186.082 27.5246 185.847 26.447 185.847 25.1818C185.847 23.9129 186.085 22.8333 186.563 21.9432C187.04 21.053 187.688 20.375 188.506 19.9091C189.324 19.4394 190.244 19.2045 191.267 19.2045C191.941 19.2045 192.566 19.2992 193.142 19.4886C193.722 19.678 194.235 19.9545 194.682 20.3182C195.129 20.678 195.493 21.1193 195.773 21.642C196.057 22.1648 196.239 22.7633 196.318 23.4375ZM190.659 30.9659H191.773L191.682 31.4602C192.072 31.5208 192.39 31.6667 192.636 31.8977C192.886 32.1288 193.013 32.4432 193.017 32.8409C193.021 33.4053 192.76 33.8542 192.233 34.1875C191.707 34.5246 190.968 34.6932 190.017 34.6932L189.994 33.6136C190.472 33.6136 190.845 33.5549 191.114 33.4375C191.386 33.3239 191.529 33.1458 191.54 32.9034C191.547 32.6723 191.458 32.4962 191.273 32.375C191.087 32.2538 190.797 32.1686 190.404 32.1193L190.659 30.9659ZM199.461 31H196.825L200.842 19.3636H204.013L208.024 31H205.388L202.473 22.0227H202.382L199.461 31ZM199.297 26.4261H205.524V28.3466H199.297V26.4261ZM209.016 31V19.3636H213.607C214.486 19.3636 215.236 19.5208 215.857 19.8352C216.482 20.1458 216.958 20.5871 217.284 21.1591C217.613 21.7273 217.778 22.3958 217.778 23.1648C217.778 23.9375 217.611 24.6023 217.278 25.1591C216.945 25.7121 216.462 26.1364 215.829 26.4318C215.2 26.7273 214.439 26.875 213.545 26.875H210.471V24.8977H213.147C213.617 24.8977 214.007 24.8333 214.318 24.7045C214.628 24.5758 214.859 24.3826 215.011 24.125C215.166 23.8674 215.244 23.5473 215.244 23.1648C215.244 22.7784 215.166 22.4527 215.011 22.1875C214.859 21.9223 214.626 21.7216 214.312 21.5852C214.001 21.4451 213.609 21.375 213.136 21.375H211.477V31H209.016ZM215.301 25.7045L218.193 31H215.477L212.647 25.7045H215.301Z" fill="#FFD012"/>
<path d="M247.707 25.7071C248.098 25.3166 248.098 24.6834 247.707 24.2929L241.343 17.9289C240.953 17.5384 240.319 17.5384 239.929 17.9289C239.538 18.3195 239.538 18.9526 239.929 19.3431L245.586 25L239.929 30.6569C239.538 31.0474 239.538 31.6805 239.929 32.0711C240.319 32.4616 240.953 32.4616 241.343 32.0711L247.707 25.7071ZM224 26H247V24H224V26Z" fill="#FFD012"/>
</svg>
