<svg width="298" height="249" viewBox="0 0 298 249" fill="none" xmlns="http://www.w3.org/2000/svg">
<line y1="-0.5" x2="298" y2="-0.5" transform="matrix(1 -4.09796e-05 0.000261633 1 0 18.9902)" stroke="#775808"/>
<line y1="-0.5" x2="298" y2="-0.5" transform="matrix(1 -2.36241e-05 0.000241945 1 0 249)" stroke="#775808"/>
<path d="M6.75852 12.9389V4.21162H10.2017C10.8636 4.21162 11.4276 4.33804 11.8935 4.59088C12.3594 4.84088 12.7145 5.18889 12.9588 5.63491C13.206 6.07809 13.3295 6.58946 13.3295 7.169C13.3295 7.74855 13.2045 8.25991 12.9545 8.70309C12.7045 9.14627 12.3423 9.49145 11.8679 9.7386C11.3963 9.98576 10.8253 10.1093 10.1548 10.1093H7.96023V8.63065H9.85653C10.2116 8.63065 10.5043 8.56957 10.7344 8.44741C10.9673 8.32241 11.1406 8.15054 11.2543 7.93179C11.3707 7.7102 11.429 7.45593 11.429 7.169C11.429 6.87923 11.3707 6.62639 11.2543 6.41048C11.1406 6.19173 10.9673 6.0227 10.7344 5.90338C10.5014 5.78122 10.206 5.72014 9.84801 5.72014H8.60369V12.9389H6.75852ZM14.6165 12.9389H12.6392L15.652 4.21162H18.0299L21.0384 12.9389H19.0611L16.875 6.20593H16.8068L14.6165 12.9389ZM14.4929 9.50849H19.1634V10.9488H14.4929V9.50849ZM24.7746 12.9389H21.6808V4.21162H24.8001C25.678 4.21162 26.4336 4.38633 27.0672 4.73576C27.7007 5.08235 28.1879 5.58093 28.5288 6.2315C28.8726 6.88207 29.0444 7.66048 29.0444 8.56673C29.0444 9.47582 28.8726 10.2571 28.5288 10.9105C28.1879 11.5639 27.6978 12.0653 27.0586 12.4147C26.4223 12.7642 25.6609 12.9389 24.7746 12.9389ZM23.526 11.3579H24.6978C25.2433 11.3579 25.7021 11.2613 26.0743 11.0681C26.4493 10.8721 26.7305 10.5696 26.918 10.1605C27.1084 9.74855 27.2035 9.2173 27.2035 8.56673C27.2035 7.92184 27.1084 7.39485 26.918 6.98576C26.7305 6.57667 26.4507 6.27554 26.0785 6.08235C25.7064 5.88917 25.2476 5.79258 24.7021 5.79258H23.526V11.3579ZM30.0033 12.9389V4.21162H33.4465C34.1055 4.21162 34.668 4.32951 35.134 4.56531C35.6027 4.79826 35.9592 5.12923 36.2036 5.55821C36.4507 5.98434 36.5743 6.48576 36.5743 7.06247C36.5743 7.64201 36.4493 8.14059 36.1993 8.55821C35.9493 8.97298 35.5871 9.29116 35.1126 9.51275C34.6411 9.73434 34.07 9.84514 33.3996 9.84514H31.0942V8.36218H33.1013C33.4536 8.36218 33.7462 8.31389 33.9791 8.2173C34.2121 8.12071 34.3854 7.97582 34.499 7.78264C34.6155 7.58946 34.6737 7.3494 34.6737 7.06247C34.6737 6.7727 34.6155 6.52838 34.499 6.32951C34.3854 6.13065 34.2107 5.98008 33.9749 5.87781C33.7419 5.7727 33.4479 5.72014 33.0928 5.72014H31.8484V12.9389H30.0033ZM34.7163 8.9673L36.8854 12.9389H34.8484L32.7263 8.9673H34.7163ZM38.9745 12.9389H36.9973L40.01 4.21162H42.3879L45.3964 12.9389H43.4191L41.2331 6.20593H41.1649L38.9745 12.9389ZM38.851 9.50849H43.5214V10.9488H38.851V9.50849ZM39.976 3.35082L38.9703 3.33804C38.9703 2.79542 39.1038 2.37923 39.3708 2.08946C39.6379 1.79968 39.966 1.65338 40.3552 1.65054C40.5541 1.65054 40.7245 1.68321 40.8666 1.74855C41.0086 1.81105 41.1379 1.88491 41.2544 1.97014C41.3708 2.05537 41.4816 2.13065 41.5868 2.19599C41.6919 2.25849 41.8055 2.28974 41.9277 2.28974C42.0924 2.2869 42.2174 2.22582 42.3027 2.1065C42.3907 1.98434 42.4348 1.82525 42.4348 1.62923L43.4277 1.65906C43.422 2.19599 43.2856 2.61076 43.0186 2.90338C42.7515 3.19315 42.4248 3.33946 42.0385 3.3423C41.8282 3.34514 41.6507 3.31389 41.5058 3.24855C41.3637 3.18321 41.2387 3.10934 41.1308 3.02696C41.0228 2.94173 40.9177 2.86645 40.8154 2.8011C40.7132 2.73576 40.5981 2.70309 40.4703 2.70309C40.3225 2.70309 40.2032 2.76133 40.1123 2.87781C40.0214 2.99429 39.976 3.15196 39.976 3.35082ZM53.6486 8.57525C53.6486 9.52696 53.4682 10.3366 53.1074 11.0042C52.7494 11.6718 52.2608 12.1818 51.6415 12.5341C51.025 12.8835 50.3318 13.0582 49.5619 13.0582C48.7863 13.0582 48.0903 12.8821 47.4738 12.5298C46.8574 12.1775 46.3702 11.6676 46.0122 11C45.6542 10.3324 45.4753 9.52412 45.4753 8.57525C45.4753 7.62355 45.6542 6.81389 46.0122 6.14628C46.3702 5.47866 46.8574 4.97014 47.4738 4.62071C48.0903 4.26843 48.7863 4.0923 49.5619 4.0923C50.3318 4.0923 51.025 4.26843 51.6415 4.62071C52.2608 4.97014 52.7494 5.47866 53.1074 6.14628C53.4682 6.81389 53.6486 7.62355 53.6486 8.57525ZM51.7778 8.57525C51.7778 7.95877 51.6855 7.43889 51.5008 7.01559C51.319 6.5923 51.0619 6.27128 50.7295 6.05253C50.3971 5.83378 50.0079 5.7244 49.5619 5.7244C49.1159 5.7244 48.7267 5.83378 48.3943 6.05253C48.0619 6.27128 47.8034 6.5923 47.6187 7.01559C47.4369 7.43889 47.346 7.95877 47.346 8.57525C47.346 9.19173 47.4369 9.71162 47.6187 10.1349C47.8034 10.5582 48.0619 10.8792 48.3943 11.098C48.7267 11.3167 49.1159 11.4261 49.5619 11.4261C50.0079 11.4261 50.3971 11.3167 50.7295 11.098C51.0619 10.8792 51.319 10.5582 51.5008 10.1349C51.6855 9.71162 51.7778 9.19173 51.7778 8.57525Z" fill="#FFD012"/>
<path d="M224.759 12V3.27273H228.202C228.864 3.27273 229.428 3.39915 229.893 3.65199C230.359 3.90199 230.714 4.25 230.959 4.69602C231.206 5.1392 231.33 5.65057 231.33 6.23011C231.33 6.80966 231.205 7.32102 230.955 7.7642C230.705 8.20739 230.342 8.55256 229.868 8.79972C229.396 9.04687 228.825 9.17045 228.155 9.17045H225.96V7.69176H227.857C228.212 7.69176 228.504 7.63068 228.734 7.50852C228.967 7.38352 229.141 7.21165 229.254 6.9929C229.371 6.77131 229.429 6.51705 229.429 6.23011C229.429 5.94034 229.371 5.6875 229.254 5.47159C229.141 5.25284 228.967 5.08381 228.734 4.96449C228.501 4.84233 228.206 4.78125 227.848 4.78125H226.604V12H224.759ZM232.12 12V3.27273H235.563C236.222 3.27273 236.785 3.39062 237.251 3.62642C237.719 3.85937 238.076 4.19034 238.32 4.61932C238.567 5.04545 238.691 5.54687 238.691 6.12358C238.691 6.70312 238.566 7.2017 238.316 7.61932C238.066 8.03409 237.704 8.35227 237.229 8.57386C236.758 8.79545 236.187 8.90625 235.516 8.90625H233.211V7.4233H235.218C235.57 7.4233 235.863 7.375 236.096 7.27841C236.329 7.18182 236.502 7.03693 236.616 6.84375C236.732 6.65057 236.791 6.41051 236.791 6.12358C236.791 5.83381 236.732 5.58949 236.616 5.39062C236.502 5.19176 236.327 5.04119 236.092 4.93892C235.859 4.83381 235.565 4.78125 235.21 4.78125H233.965V12H232.12ZM236.833 8.02841L239.002 12H236.965L234.843 8.02841H236.833ZM239.587 12V3.27273H245.468V4.79403H241.432V6.87358H245.165V8.39489H241.432V10.4787H245.485V12H239.587ZM248.103 3.27273L250.213 9.90341H250.294L252.407 3.27273H254.453L251.444 12H249.066L246.054 3.27273H248.103ZM256.94 3.27273V12H255.095V3.27273H256.94ZM262.785 5.78267C262.751 5.43892 262.605 5.17187 262.346 4.98153C262.087 4.79119 261.737 4.69602 261.293 4.69602C260.992 4.69602 260.738 4.73864 260.531 4.82386C260.323 4.90625 260.164 5.02131 260.053 5.16903C259.945 5.31676 259.891 5.48438 259.891 5.67188C259.886 5.82812 259.918 5.96449 259.989 6.08097C260.063 6.19744 260.164 6.2983 260.292 6.38352C260.42 6.46591 260.568 6.53835 260.735 6.60085C260.903 6.66051 261.082 6.71165 261.272 6.75426L262.056 6.94176C262.437 7.02699 262.786 7.14062 263.105 7.28267C263.423 7.42472 263.698 7.59943 263.931 7.80682C264.164 8.0142 264.345 8.25852 264.472 8.53977C264.603 8.82102 264.67 9.14347 264.673 9.5071C264.67 10.0412 264.534 10.5043 264.264 10.8963C263.997 11.2855 263.61 11.5881 263.105 11.804C262.602 12.017 261.995 12.1236 261.285 12.1236C260.58 12.1236 259.967 12.0156 259.444 11.7997C258.924 11.5838 258.518 11.2642 258.225 10.8409C257.935 10.4148 257.784 9.88778 257.769 9.25994H259.555C259.575 9.55256 259.659 9.79687 259.806 9.9929C259.957 10.1861 260.157 10.3324 260.407 10.4318C260.66 10.5284 260.945 10.5767 261.264 10.5767C261.576 10.5767 261.847 10.5312 262.078 10.4403C262.31 10.3494 262.491 10.223 262.619 10.0611C262.747 9.89915 262.81 9.71307 262.81 9.50284C262.81 9.30682 262.752 9.14205 262.636 9.00852C262.522 8.875 262.355 8.76136 262.133 8.66761C261.914 8.57386 261.646 8.48864 261.328 8.41193L260.377 8.1733C259.641 7.99432 259.06 7.71449 258.634 7.33381C258.208 6.95312 257.997 6.44034 257.999 5.79545C257.997 5.26705 258.137 4.8054 258.421 4.41051C258.708 4.01562 259.102 3.70739 259.602 3.4858C260.102 3.2642 260.67 3.15341 261.306 3.15341C261.954 3.15341 262.519 3.2642 263.002 3.4858C263.488 3.70739 263.866 4.01562 264.136 4.41051C264.406 4.8054 264.545 5.26278 264.553 5.78267H262.785ZM266.811 12H264.834L267.846 3.27273H270.224L273.233 12H271.255L269.069 5.26705H269.001L266.811 12ZM266.687 8.5696H271.358V10.0099H266.687V8.5696ZM267.812 2.41193L266.807 2.39915C266.807 1.85653 266.94 1.44034 267.207 1.15057C267.474 0.860795 267.802 0.714488 268.192 0.711647C268.39 0.711647 268.561 0.744318 268.703 0.809659C268.845 0.872159 268.974 0.946023 269.091 1.03125C269.207 1.11648 269.318 1.19176 269.423 1.2571C269.528 1.3196 269.642 1.35085 269.764 1.35085C269.929 1.34801 270.054 1.28693 270.139 1.16761C270.227 1.04545 270.271 0.886364 270.271 0.690341L271.264 0.72017C271.258 1.2571 271.122 1.67187 270.855 1.96449C270.588 2.25426 270.261 2.40057 269.875 2.40341C269.665 2.40625 269.487 2.375 269.342 2.30966C269.2 2.24432 269.075 2.17045 268.967 2.08807C268.859 2.00284 268.754 1.92756 268.652 1.86222C268.55 1.79687 268.434 1.7642 268.307 1.7642C268.159 1.7642 268.04 1.82244 267.949 1.93892C267.858 2.0554 267.812 2.21307 267.812 2.41193ZM281.485 7.63636C281.485 8.58807 281.305 9.39773 280.944 10.0653C280.586 10.733 280.097 11.2429 279.478 11.5952C278.861 11.9446 278.168 12.1193 277.398 12.1193C276.623 12.1193 275.927 11.9432 275.31 11.5909C274.694 11.2386 274.207 10.7287 273.849 10.0611C273.491 9.39347 273.312 8.58523 273.312 7.63636C273.312 6.68466 273.491 5.875 273.849 5.20739C274.207 4.53977 274.694 4.03125 275.31 3.68182C275.927 3.32955 276.623 3.15341 277.398 3.15341C278.168 3.15341 278.861 3.32955 279.478 3.68182C280.097 4.03125 280.586 4.53977 280.944 5.20739C281.305 5.875 281.485 6.68466 281.485 7.63636ZM279.614 7.63636C279.614 7.01989 279.522 6.5 279.337 6.0767C279.155 5.65341 278.898 5.33239 278.566 5.11364C278.233 4.89489 277.844 4.78551 277.398 4.78551C276.952 4.78551 276.563 4.89489 276.231 5.11364C275.898 5.33239 275.64 5.65341 275.455 6.0767C275.273 6.5 275.182 7.01989 275.182 7.63636C275.182 8.25284 275.273 8.77273 275.455 9.19602C275.64 9.61932 275.898 9.94034 276.231 10.1591C276.563 10.3778 276.952 10.4872 277.398 10.4872C277.844 10.4872 278.233 10.3778 278.566 10.1591C278.898 9.94034 279.155 9.61932 279.337 9.19602C279.522 8.77273 279.614 8.25284 279.614 7.63636Z" fill="#FFD012"/>
<line x1="217.5" y1="18.0391" x2="217.5" y2="3.00001" stroke="#775808"/>
</svg>
