<svg width="189" height="50" viewBox="0 0 189 50" fill="none" xmlns="http://www.w3.org/2000/svg">
<rect width="189" height="50" fill="#7D5D09"/>
<rect width="189" height="50" fill="#5F480C"/>
<path d="M50.1364 31H46.0114V19.3636H50.1705C51.3409 19.3636 52.3485 19.5966 53.1932 20.0625C54.0379 20.5246 54.6875 21.1894 55.142 22.0568C55.6004 22.9242 55.8295 23.9621 55.8295 25.1705C55.8295 26.3826 55.6004 27.4242 55.142 28.2955C54.6875 29.1667 54.0341 29.8352 53.1818 30.3011C52.3333 30.767 51.3182 31 50.1364 31ZM48.4716 28.892H50.0341C50.7614 28.892 51.3731 28.7633 51.8693 28.5057C52.3693 28.2443 52.7443 27.8409 52.9943 27.2955C53.2481 26.7462 53.375 26.0379 53.375 25.1705C53.375 24.3106 53.2481 23.608 52.9943 23.0625C52.7443 22.517 52.3712 22.1155 51.875 21.858C51.3788 21.6004 50.767 21.4716 50.0398 21.4716H48.4716V28.892ZM57.244 31V19.3636H65.0849V21.392H59.7042V24.1648H64.6815V26.1932H59.7042V28.9716H65.1076V31H57.244ZM72.9454 22.7102C72.8999 22.2519 72.7048 21.8958 72.3601 21.642C72.0154 21.3883 71.5476 21.2614 70.9567 21.2614C70.5552 21.2614 70.2162 21.3182 69.9397 21.4318C69.6632 21.5417 69.451 21.6951 69.3033 21.892C69.1594 22.089 69.0874 22.3125 69.0874 22.5625C69.0798 22.7708 69.1234 22.9527 69.2181 23.108C69.3166 23.2633 69.451 23.3977 69.6215 23.5114C69.792 23.6212 69.9889 23.7178 70.2124 23.8011C70.4359 23.8807 70.6745 23.9489 70.9283 24.0057L71.9738 24.2557C72.4813 24.3693 72.9473 24.5208 73.3715 24.7102C73.7957 24.8996 74.1632 25.1326 74.4738 25.4091C74.7844 25.6856 75.0249 26.0114 75.1954 26.3864C75.3696 26.7614 75.4586 27.1913 75.4624 27.6761C75.4586 28.3883 75.2768 29.0057 74.917 29.5284C74.5609 30.0473 74.0457 30.4508 73.3715 30.7386C72.701 31.0227 71.8923 31.1648 70.9454 31.1648C70.006 31.1648 69.1878 31.0208 68.4908 30.733C67.7976 30.4451 67.256 30.0189 66.8658 29.4545C66.4795 28.8864 66.2768 28.1837 66.2579 27.3466H68.6385C68.6651 27.7367 68.7768 28.0625 68.9738 28.3239C69.1745 28.5814 69.4416 28.7765 69.7749 28.9091C70.112 29.0379 70.4927 29.1023 70.917 29.1023C71.3336 29.1023 71.6954 29.0417 72.0022 28.9205C72.3128 28.7992 72.5533 28.6307 72.7238 28.4148C72.8942 28.1989 72.9795 27.9508 72.9795 27.6705C72.9795 27.4091 72.9018 27.1894 72.7465 27.0114C72.595 26.8333 72.3715 26.6818 72.076 26.5568C71.7844 26.4318 71.4264 26.3182 71.0022 26.2159L69.7351 25.8977C68.7541 25.6591 67.9795 25.286 67.4113 24.7784C66.8431 24.2708 66.5609 23.5871 66.5647 22.7273C66.5609 22.0227 66.7484 21.4072 67.1272 20.8807C67.5098 20.3542 68.0344 19.9432 68.701 19.6477C69.3677 19.3523 70.1253 19.2045 70.9738 19.2045C71.8374 19.2045 72.5912 19.3523 73.2351 19.6477C73.8829 19.9432 74.3867 20.3542 74.7465 20.8807C75.1063 21.4072 75.292 22.017 75.3033 22.7102H72.9454ZM76.7092 31V19.3636H79.1695V28.9716H84.1581V31H76.7092ZM87.8396 19.3636V31H85.3794V19.3636H87.8396ZM97.1716 23.125C97.0921 22.8485 96.9804 22.6042 96.8364 22.392C96.6925 22.1761 96.5163 21.9943 96.308 21.8466C96.1035 21.6951 95.8686 21.5795 95.6035 21.5C95.3421 21.4205 95.0523 21.3807 94.7341 21.3807C94.1395 21.3807 93.6167 21.5284 93.166 21.8239C92.719 22.1193 92.3705 22.5492 92.1205 23.1136C91.8705 23.6742 91.7455 24.3598 91.7455 25.1705C91.7455 25.9811 91.8686 26.6705 92.1148 27.2386C92.361 27.8068 92.7095 28.2405 93.1603 28.5398C93.611 28.8352 94.1432 28.983 94.7569 28.983C95.3137 28.983 95.7891 28.8845 96.183 28.6875C96.5807 28.4867 96.8838 28.2045 97.0921 27.8409C97.3042 27.4773 97.4103 27.0473 97.4103 26.5511L97.9103 26.625H94.9103V24.7727H99.7796V26.2386C99.7796 27.2614 99.5637 28.1402 99.1319 28.875C98.7001 29.6061 98.1054 30.1705 97.3478 30.5682C96.5902 30.9621 95.7228 31.1591 94.7455 31.1591C93.6546 31.1591 92.6963 30.9186 91.8705 30.4375C91.0448 29.9527 90.4008 29.2652 89.9387 28.375C89.4804 27.4811 89.2512 26.4205 89.2512 25.1932C89.2512 24.25 89.3876 23.4091 89.6603 22.6705C89.9368 21.928 90.3232 21.2992 90.8194 20.7841C91.3156 20.2689 91.8932 19.8769 92.5523 19.608C93.2114 19.339 93.9254 19.2045 94.6944 19.2045C95.3535 19.2045 95.9671 19.3011 96.5353 19.4943C97.1035 19.6837 97.6073 19.9527 98.0466 20.3011C98.4898 20.6496 98.8516 21.0644 99.1319 21.5455C99.4122 22.0227 99.5921 22.5492 99.6716 23.125H97.1716ZM102.866 31H100.23L104.247 19.3636H107.417L111.428 31H108.792L105.877 22.0227H105.786L102.866 31ZM102.701 26.4261H108.928V28.3466H102.701V26.4261ZM112.421 31V19.3636H117.012C117.891 19.3636 118.641 19.5208 119.262 19.8352C119.887 20.1458 120.362 20.5871 120.688 21.1591C121.018 21.7273 121.182 22.3958 121.182 23.1648C121.182 23.9375 121.016 24.6023 120.682 25.1591C120.349 25.7121 119.866 26.1364 119.233 26.4318C118.605 26.7273 117.843 26.875 116.949 26.875H113.876V24.8977H116.552C117.021 24.8977 117.412 24.8333 117.722 24.7045C118.033 24.5758 118.264 24.3826 118.415 24.125C118.571 23.8674 118.648 23.5473 118.648 23.1648C118.648 22.7784 118.571 22.4527 118.415 22.1875C118.264 21.9223 118.031 21.7216 117.716 21.5852C117.406 21.4451 117.014 21.375 116.54 21.375H114.881V31H112.421ZM118.705 25.7045L121.597 31H118.881L116.052 25.7045H118.705Z" fill="#FFD012"/>
<path d="M136.154 36C130.815 36 126.471 31.5429 126.471 26.0645C126.471 22.4341 128.4 19.0937 131.505 17.3471C132.008 17.0644 132.638 17.2534 132.914 17.7688C133.189 18.2843 133.005 18.9314 132.503 19.214C130.062 20.5868 128.546 23.2118 128.546 26.0645C128.546 30.369 131.959 33.8709 136.154 33.8709C140.348 33.8709 143.761 30.369 143.761 26.0645C143.761 23.1993 142.235 20.5689 139.779 19.1997C139.276 18.919 139.089 18.2727 139.363 17.7561C139.636 17.2395 140.266 17.0482 140.769 17.3288C143.894 19.0709 145.836 22.4182 145.836 26.0646C145.836 31.5429 141.492 36 136.154 36Z" fill="#FFD012"/>
<path d="M136.154 23.2258C135.581 23.2258 135.116 22.7492 135.116 22.1613V15.0645C135.116 14.4766 135.581 14 136.154 14C136.727 14 137.191 14.4766 137.191 15.0645V22.1613C137.191 22.7492 136.727 23.2258 136.154 23.2258Z" fill="#FFD012"/>
</svg>
