<svg width="189" height="50" viewBox="0 0 189 50" fill="none" xmlns="http://www.w3.org/2000/svg">
<rect width="189" height="50" fill="#7D5D09"/>
<rect width="189" height="50" fill="#A28200"/>
<path d="M60.4716 19.3636V31H58.0114V19.3636H60.4716ZM71.8207 19.3636V31H69.6957L64.6332 23.6761H64.548V31H62.0877V19.3636H64.2468L69.2696 26.6818H69.3718V19.3636H71.8207ZM75.9056 19.3636V31H73.4454V19.3636H75.9056ZM87.7888 23.4375H85.3001C85.2547 23.1155 85.1619 22.8295 85.0217 22.5795C84.8816 22.3258 84.7017 22.1098 84.482 21.9318C84.2623 21.7538 84.0085 21.6174 83.7206 21.5227C83.4365 21.428 83.1278 21.3807 82.7945 21.3807C82.1922 21.3807 81.6676 21.5303 81.2206 21.8295C80.7736 22.125 80.427 22.5568 80.1808 23.125C79.9346 23.6894 79.8115 24.375 79.8115 25.1818C79.8115 26.0114 79.9346 26.7083 80.1808 27.2727C80.4308 27.8371 80.7793 28.2633 81.2263 28.5511C81.6733 28.839 82.1903 28.983 82.7774 28.983C83.107 28.983 83.4119 28.9394 83.6922 28.8523C83.9763 28.7652 84.2282 28.6383 84.4479 28.4716C84.6676 28.3011 84.8494 28.0947 84.9933 27.8523C85.1411 27.6098 85.2433 27.3333 85.3001 27.0227L87.7888 27.0341C87.7244 27.5682 87.5634 28.0833 87.3058 28.5795C87.052 29.072 86.7092 29.5133 86.2774 29.9034C85.8494 30.2898 85.338 30.5966 84.7433 30.8239C84.1524 31.0473 83.4839 31.1591 82.7376 31.1591C81.6998 31.1591 80.7717 30.9242 79.9536 30.4545C79.1392 29.9848 78.4952 29.3049 78.0217 28.4148C77.552 27.5246 77.3172 26.447 77.3172 25.1818C77.3172 23.9129 77.5558 22.8333 78.0331 21.9432C78.5104 21.053 79.1581 20.375 79.9763 19.9091C80.7945 19.4394 81.7149 19.2045 82.7376 19.2045C83.4119 19.2045 84.0369 19.2992 84.6126 19.4886C85.1922 19.678 85.7055 19.9545 86.1524 20.3182C86.5994 20.678 86.963 21.1193 87.2433 21.642C87.5274 22.1648 87.7092 22.7633 87.7888 23.4375ZM91.6052 19.3636V31H89.145V19.3636H91.6052ZM95.227 31H92.5907L96.6077 19.3636H99.7782L103.79 31H101.153L98.2384 22.0227H98.1475L95.227 31ZM95.0623 26.4261H101.29V28.3466H95.0623V26.4261ZM104.782 31V19.3636H109.373C110.252 19.3636 111.002 19.5208 111.623 19.8352C112.248 20.1458 112.723 20.5871 113.049 21.1591C113.379 21.7273 113.543 22.3958 113.543 23.1648C113.543 23.9375 113.377 24.6023 113.043 25.1591C112.71 25.7121 112.227 26.1364 111.595 26.4318C110.966 26.7273 110.204 26.875 109.311 26.875H106.237V24.8977H108.913C109.382 24.8977 109.773 24.8333 110.083 24.7045C110.394 24.5758 110.625 24.3826 110.776 24.125C110.932 23.8674 111.009 23.5473 111.009 23.1648C111.009 22.7784 110.932 22.4527 110.776 22.1875C110.625 21.9223 110.392 21.7216 110.078 21.5852C109.767 21.4451 109.375 21.375 108.901 21.375H107.242V31H104.782ZM111.066 25.7045L113.958 31H111.242L108.413 25.7045H111.066Z" fill="#FFD012"/>
<path d="M129.154 36C123.815 36 119.471 31.5429 119.471 26.0645C119.471 22.4341 121.4 19.0937 124.505 17.3471C125.008 17.0644 125.638 17.2534 125.914 17.7688C126.189 18.2843 126.005 18.9314 125.503 19.214C123.062 20.5868 121.546 23.2118 121.546 26.0645C121.546 30.369 124.959 33.8709 129.154 33.8709C133.348 33.8709 136.761 30.369 136.761 26.0645C136.761 23.1993 135.235 20.5689 132.779 19.1997C132.276 18.919 132.089 18.2727 132.363 17.7561C132.636 17.2395 133.266 17.0482 133.769 17.3288C136.894 19.0709 138.836 22.4182 138.836 26.0646C138.836 31.5429 134.492 36 129.154 36Z" fill="#FFD012"/>
<path d="M129.154 23.2258C128.581 23.2258 128.116 22.7492 128.116 22.1613V15.0645C128.116 14.4766 128.581 14 129.154 14C129.727 14 130.191 14.4766 130.191 15.0645V22.1613C130.191 22.7492 129.727 23.2258 129.154 23.2258Z" fill="#FFD012"/>
</svg>
