<svg width="188" height="50" viewBox="0 0 188 50" fill="none" xmlns="http://www.w3.org/2000/svg">
<g clip-path="url(#clip0_3_13)">
<rect width="189" height="50" fill="#7D5D09"/>
<rect width="189" height="50" fill="#8D6809"/>
<path d="M79.4971 19.3636L82.3096 28.2045H82.4175L85.2357 19.3636H87.963L83.9516 31H80.7812L76.7641 19.3636H79.4971ZM98.9925 25.1818C98.9925 26.4508 98.7519 27.5303 98.2709 28.4205C97.7936 29.3106 97.1421 29.9905 96.3163 30.4602C95.4944 30.9261 94.5701 31.1591 93.5436 31.1591C92.5095 31.1591 91.5815 30.9242 90.7595 30.4545C89.9375 29.9848 89.2879 29.3049 88.8107 28.4148C88.3334 27.5246 88.0947 26.447 88.0947 25.1818C88.0947 23.9129 88.3334 22.8333 88.8107 21.9432C89.2879 21.053 89.9375 20.375 90.7595 19.9091C91.5815 19.4394 92.5095 19.2045 93.5436 19.2045C94.5701 19.2045 95.4944 19.4394 96.3163 19.9091C97.1421 20.375 97.7936 21.053 98.2709 21.9432C98.7519 22.8333 98.9925 23.9129 98.9925 25.1818ZM96.4982 25.1818C96.4982 24.3598 96.375 23.6667 96.1288 23.1023C95.8864 22.5379 95.5436 22.1098 95.1004 21.8182C94.6572 21.5265 94.1383 21.3807 93.5436 21.3807C92.9489 21.3807 92.43 21.5265 91.9868 21.8182C91.5436 22.1098 91.1989 22.5379 90.9527 23.1023C90.7103 23.6667 90.5891 24.3598 90.5891 25.1818C90.5891 26.0038 90.7103 26.697 90.9527 27.2614C91.1989 27.8258 91.5436 28.2538 91.9868 28.5455C92.43 28.8371 92.9489 28.983 93.5436 28.983C94.1383 28.983 94.6572 28.8371 95.1004 28.5455C95.5436 28.2538 95.8864 27.8258 96.1288 27.2614C96.375 26.697 96.4982 26.0038 96.4982 25.1818ZM100.407 31V19.3636H102.867V28.9716H107.856V31H100.407ZM107.181 21.392V19.3636H116.738V21.392H113.175V31H110.743V21.392H107.181ZM118.487 31H115.851L119.868 19.3636H123.038L127.05 31H124.413L121.499 22.0227H121.408L118.487 31ZM118.322 26.4261H124.55V28.3466H118.322V26.4261ZM128.042 31V19.3636H132.633C133.512 19.3636 134.262 19.5208 134.883 19.8352C135.508 20.1458 135.984 20.5871 136.309 21.1591C136.639 21.7273 136.804 22.3958 136.804 23.1648C136.804 23.9375 136.637 24.6023 136.304 25.1591C135.97 25.7121 135.487 26.1364 134.855 26.4318C134.226 26.7273 133.465 26.875 132.571 26.875H129.497V24.8977H132.173C132.643 24.8977 133.033 24.8333 133.343 24.7045C133.654 24.5758 133.885 24.3826 134.037 24.125C134.192 23.8674 134.27 23.5473 134.27 23.1648C134.27 22.7784 134.192 22.4527 134.037 22.1875C133.885 21.9223 133.652 21.7216 133.338 21.5852C133.027 21.4451 132.635 21.375 132.162 21.375H130.503V31H128.042ZM134.326 25.7045L137.218 31H134.503L131.673 25.7045H134.326Z" fill="#FFD012"/>
<path d="M47.2773 24.2929C46.8868 24.6834 46.8868 25.3166 47.2773 25.7071L53.6413 32.0711C54.0318 32.4616 54.665 32.4616 55.0555 32.0711C55.446 31.6805 55.446 31.0474 55.0555 30.6569L49.3987 25L55.0555 19.3431C55.446 18.9526 55.446 18.3195 55.0555 17.9289C54.665 17.5384 54.0318 17.5384 53.6413 17.9289L47.2773 24.2929ZM47.9845 26H70.5078V24H47.9845V26Z" fill="#FFD012"/>
</g>
<defs>
<clipPath id="clip0_3_13">
<rect width="188" height="50" fill="white"/>
</clipPath>
</defs>
</svg>
