<svg width="150" height="69" viewBox="0 0 150 69" fill="none" xmlns="http://www.w3.org/2000/svg">
<g filter="url(#filter0_d_7_31)">
<rect x="4" y="10" width="142" height="51" rx="6" fill="#FFD012"/>
<rect x="6.02856" y="10.6623" width="137.943" height="49.5429" rx="6" fill="#FFD012"/>
</g>
<g filter="url(#filter1_d_7_31)">
<rect x="6" y="12" width="138" height="47" rx="6" fill="#725509"/>
</g>
<g filter="url(#filter2_d_7_31)">
<rect x="43" width="64" height="24" rx="6" fill="#FFD012"/>
<rect x="43.9143" y="0.311691" width="62.1714" height="23.3143" rx="6" fill="#FFD012"/>
</g>
<g style="mix-blend-mode:luminosity" filter="url(#filter3_d_7_31)">
<rect x="43.9014" y="0.941177" width="62.1972" height="22.1176" rx="6" fill="#A28200"/>
</g>
<path d="M55.0114 18V6.36364H57.4716V15.9716H62.4602V18H55.0114ZM73.9215 12.1818C73.9215 13.4508 73.681 14.5303 73.2 15.4205C72.7227 16.3106 72.0712 16.9905 71.2454 17.4602C70.4234 17.9261 69.4992 18.1591 68.4727 18.1591C67.4386 18.1591 66.5106 17.9242 65.6886 17.4545C64.8666 16.9848 64.217 16.3049 63.7397 15.4148C63.2625 14.5246 63.0238 13.447 63.0238 12.1818C63.0238 10.9129 63.2625 9.83333 63.7397 8.94318C64.217 8.05303 64.8666 7.375 65.6886 6.90909C66.5106 6.43939 67.4386 6.20455 68.4727 6.20455C69.4992 6.20455 70.4234 6.43939 71.2454 6.90909C72.0712 7.375 72.7227 8.05303 73.2 8.94318C73.681 9.83333 73.9215 10.9129 73.9215 12.1818ZM71.4272 12.1818C71.4272 11.3598 71.3041 10.6667 71.0579 10.1023C70.8155 9.53788 70.4727 9.10985 70.0295 8.81818C69.5863 8.52652 69.0674 8.38068 68.4727 8.38068C67.878 8.38068 67.359 8.52652 66.9159 8.81818C66.4727 9.10985 66.128 9.53788 65.8818 10.1023C65.6393 10.6667 65.5181 11.3598 65.5181 12.1818C65.5181 13.0038 65.6393 13.697 65.8818 14.2614C66.128 14.8258 66.4727 15.2538 66.9159 15.5455C67.359 15.8371 67.878 15.983 68.4727 15.983C69.0674 15.983 69.5863 15.8371 70.0295 15.5455C70.4727 15.2538 70.8155 14.8258 71.0579 14.2614C71.3041 13.697 71.4272 13.0038 71.4272 12.1818ZM81.6485 9.71023C81.603 9.25189 81.408 8.89583 81.0633 8.64205C80.7186 8.38826 80.2508 8.26136 79.6599 8.26136C79.2583 8.26136 78.9193 8.31818 78.6428 8.43182C78.3663 8.54167 78.1542 8.69508 78.0064 8.89205C77.8625 9.08902 77.7905 9.3125 77.7905 9.5625C77.783 9.77083 77.8265 9.95265 77.9212 10.108C78.0197 10.2633 78.1542 10.3977 78.3246 10.5114C78.4951 10.6212 78.692 10.7178 78.9155 10.8011C79.139 10.8807 79.3777 10.9489 79.6314 11.0057L80.6769 11.2557C81.1845 11.3693 81.6504 11.5208 82.0746 11.7102C82.4989 11.8996 82.8663 12.1326 83.1769 12.4091C83.4875 12.6856 83.728 13.0114 83.8985 13.3864C84.0727 13.7614 84.1617 14.1913 84.1655 14.6761C84.1617 15.3883 83.9799 16.0057 83.6201 16.5284C83.264 17.0473 82.7489 17.4508 82.0746 17.7386C81.4042 18.0227 80.5955 18.1648 79.6485 18.1648C78.7091 18.1648 77.8909 18.0208 77.1939 17.733C76.5008 17.4451 75.9591 17.0189 75.5689 16.4545C75.1826 15.8864 74.9799 15.1837 74.961 14.3466H77.3417C77.3682 14.7367 77.4799 15.0625 77.6769 15.3239C77.8777 15.5814 78.1447 15.7765 78.478 15.9091C78.8152 16.0379 79.1958 16.1023 79.6201 16.1023C80.0367 16.1023 80.3985 16.0417 80.7053 15.9205C81.0159 15.7992 81.2564 15.6307 81.4269 15.4148C81.5974 15.1989 81.6826 14.9508 81.6826 14.6705C81.6826 14.4091 81.6049 14.1894 81.4496 14.0114C81.2981 13.8333 81.0746 13.6818 80.7792 13.5568C80.4875 13.4318 80.1295 13.3182 79.7053 13.2159L78.4383 12.8977C77.4572 12.6591 76.6826 12.286 76.1144 11.7784C75.5462 11.2708 75.264 10.5871 75.2678 9.72727C75.264 9.02273 75.4515 8.4072 75.8303 7.88068C76.2129 7.35417 76.7375 6.94318 77.4042 6.64773C78.0708 6.35227 78.8284 6.20455 79.6769 6.20455C80.5405 6.20455 81.2943 6.35227 81.9383 6.64773C82.586 6.94318 83.0898 7.35417 83.4496 7.88068C83.8095 8.4072 83.9951 9.01705 84.0064 9.71023H81.6485ZM91.7249 9.71023C91.6794 9.25189 91.4843 8.89583 91.1396 8.64205C90.7949 8.38826 90.3271 8.26136 89.7362 8.26136C89.3347 8.26136 88.9957 8.31818 88.7192 8.43182C88.4427 8.54167 88.2305 8.69508 88.0828 8.89205C87.9389 9.08902 87.8669 9.3125 87.8669 9.5625C87.8593 9.77083 87.9029 9.95265 87.9976 10.108C88.0961 10.2633 88.2305 10.3977 88.401 10.5114C88.5715 10.6212 88.7684 10.7178 88.9919 10.8011C89.2154 10.8807 89.454 10.9489 89.7078 11.0057L90.7533 11.2557C91.2608 11.3693 91.7268 11.5208 92.151 11.7102C92.5752 11.8996 92.9427 12.1326 93.2533 12.4091C93.5639 12.6856 93.8044 13.0114 93.9749 13.3864C94.1491 13.7614 94.2381 14.1913 94.2419 14.6761C94.2381 15.3883 94.0563 16.0057 93.6965 16.5284C93.3404 17.0473 92.8252 17.4508 92.151 17.7386C91.4805 18.0227 90.6718 18.1648 89.7249 18.1648C88.7855 18.1648 87.9673 18.0208 87.2703 17.733C86.5771 17.4451 86.0355 17.0189 85.6453 16.4545C85.259 15.8864 85.0563 15.1837 85.0374 14.3466H87.418C87.4446 14.7367 87.5563 15.0625 87.7533 15.3239C87.954 15.5814 88.2211 15.7765 88.5544 15.9091C88.8915 16.0379 89.2722 16.1023 89.6965 16.1023C90.1131 16.1023 90.4749 16.0417 90.7817 15.9205C91.0923 15.7992 91.3328 15.6307 91.5033 15.4148C91.6737 15.1989 91.759 14.9508 91.759 14.6705C91.759 14.4091 91.6813 14.1894 91.526 14.0114C91.3745 13.8333 91.151 13.6818 90.8555 13.5568C90.5639 13.4318 90.2059 13.3182 89.7817 13.2159L88.5146 12.8977C87.5336 12.6591 86.759 12.286 86.1908 11.7784C85.6226 11.2708 85.3404 10.5871 85.3442 9.72727C85.3404 9.02273 85.5279 8.4072 85.9067 7.88068C86.2893 7.35417 86.8139 6.94318 87.4805 6.64773C88.1472 6.35227 88.9048 6.20455 89.7533 6.20455C90.6169 6.20455 91.3707 6.35227 92.0146 6.64773C92.6624 6.94318 93.1662 7.35417 93.526 7.88068C93.8858 8.4072 94.0715 9.01705 94.0828 9.71023H91.7249Z" fill="#FFD012"/>
<defs>
<filter id="filter0_d_7_31" x="0" y="10" width="150" height="59" filterUnits="userSpaceOnUse" color-interpolation-filters="sRGB">
<feFlood flood-opacity="0" result="BackgroundImageFix"/>
<feColorMatrix in="SourceAlpha" type="matrix" values="0 0 0 0 0 0 0 0 0 0 0 0 0 0 0 0 0 0 127 0" result="hardAlpha"/>
<feOffset dy="4"/>
<feGaussianBlur stdDeviation="2"/>
<feComposite in2="hardAlpha" operator="out"/>
<feColorMatrix type="matrix" values="0 0 0 0 0 0 0 0 0 0 0 0 0 0 0 0 0 0 0.25 0"/>
<feBlend mode="normal" in2="BackgroundImageFix" result="effect1_dropShadow_7_31"/>
<feBlend mode="normal" in="SourceGraphic" in2="effect1_dropShadow_7_31" result="shape"/>
</filter>
<filter id="filter1_d_7_31" x="2" y="12" width="146" height="55" filterUnits="userSpaceOnUse" color-interpolation-filters="sRGB">
<feFlood flood-opacity="0" result="BackgroundImageFix"/>
<feColorMatrix in="SourceAlpha" type="matrix" values="0 0 0 0 0 0 0 0 0 0 0 0 0 0 0 0 0 0 127 0" result="hardAlpha"/>
<feOffset dy="4"/>
<feGaussianBlur stdDeviation="2"/>
<feComposite in2="hardAlpha" operator="out"/>
<feColorMatrix type="matrix" values="0 0 0 0 0 0 0 0 0 0 0 0 0 0 0 0 0 0 0.25 0"/>
<feBlend mode="normal" in2="BackgroundImageFix" result="effect1_dropShadow_7_31"/>
<feBlend mode="normal" in="SourceGraphic" in2="effect1_dropShadow_7_31" result="shape"/>
</filter>
<filter id="filter2_d_7_31" x="39" y="0" width="72" height="32" filterUnits="userSpaceOnUse" color-interpolation-filters="sRGB">
<feFlood flood-opacity="0" result="BackgroundImageFix"/>
<feColorMatrix in="SourceAlpha" type="matrix" values="0 0 0 0 0 0 0 0 0 0 0 0 0 0 0 0 0 0 127 0" result="hardAlpha"/>
<feOffset dy="4"/>
<feGaussianBlur stdDeviation="2"/>
<feComposite in2="hardAlpha" operator="out"/>
<feColorMatrix type="matrix" values="0 0 0 0 0 0 0 0 0 0 0 0 0 0 0 0 0 0 0.25 0"/>
<feBlend mode="normal" in2="BackgroundImageFix" result="effect1_dropShadow_7_31"/>
<feBlend mode="normal" in="SourceGraphic" in2="effect1_dropShadow_7_31" result="shape"/>
</filter>
<filter id="filter3_d_7_31" x="39.9014" y="0.941177" width="70.1972" height="30.1176" filterUnits="userSpaceOnUse" color-interpolation-filters="sRGB">
<feFlood flood-opacity="0" result="BackgroundImageFix"/>
<feColorMatrix in="SourceAlpha" type="matrix" values="0 0 0 0 0 0 0 0 0 0 0 0 0 0 0 0 0 0 127 0" result="hardAlpha"/>
<feOffset dy="4"/>
<feGaussianBlur stdDeviation="2"/>
<feComposite in2="hardAlpha" operator="out"/>
<feColorMatrix type="matrix" values="0 0 0 0 0 0 0 0 0 0 0 0 0 0 0 0 0 0 0.25 0"/>
<feBlend mode="normal" in2="BackgroundImageFix" result="effect1_dropShadow_7_31"/>
<feBlend mode="normal" in="SourceGraphic" in2="effect1_dropShadow_7_31" result="shape"/>
</filter>
</defs>
</svg>
