<svg width="190" height="51" viewBox="0 0 190 51" fill="none" xmlns="http://www.w3.org/2000/svg">
<rect x="0.0269165" width="189.973" height="50.3704" fill="#725509"/>
<rect width="189.688" height="50" fill="#8D6809"/>
<path d="M80.3222 19.3636L83.1347 28.2045H83.2426L86.0608 19.3636H88.7881L84.7767 31H81.6063L77.5892 19.3636H80.3222ZM99.8176 25.1818C99.8176 26.4508 99.577 27.5303 99.096 28.4205C98.6187 29.3106 97.9672 29.9905 97.1414 30.4602C96.3195 30.9261 95.3952 31.1591 94.3687 31.1591C93.3346 31.1591 92.4066 30.9242 91.5846 30.4545C90.7626 29.9848 90.113 29.3049 89.6358 28.4148C89.1585 27.5246 88.9198 26.447 88.9198 25.1818C88.9198 23.9129 89.1585 22.8333 89.6358 21.9432C90.113 21.053 90.7626 20.375 91.5846 19.9091C92.4066 19.4394 93.3346 19.2045 94.3687 19.2045C95.3952 19.2045 96.3195 19.4394 97.1414 19.9091C97.9672 20.375 98.6187 21.053 99.096 21.9432C99.577 22.8333 99.8176 23.9129 99.8176 25.1818ZM97.3233 25.1818C97.3233 24.3598 97.2001 23.6667 96.9539 23.1023C96.7115 22.5379 96.3687 22.1098 95.9255 21.8182C95.4823 21.5265 94.9634 21.3807 94.3687 21.3807C93.774 21.3807 93.2551 21.5265 92.8119 21.8182C92.3687 22.1098 92.024 22.5379 91.7778 23.1023C91.5354 23.6667 91.4142 24.3598 91.4142 25.1818C91.4142 26.0038 91.5354 26.697 91.7778 27.2614C92.024 27.8258 92.3687 28.2538 92.8119 28.5455C93.2551 28.8371 93.774 28.983 94.3687 28.983C94.9634 28.983 95.4823 28.8371 95.9255 28.5455C96.3687 28.2538 96.7115 27.8258 96.9539 27.2614C97.2001 26.697 97.3233 26.0038 97.3233 25.1818ZM101.232 31V19.3636H103.692V28.9716H108.681V31H101.232ZM108.006 21.392V19.3636H117.563V21.392H114V31H111.568V21.392H108.006ZM119.312 31H116.676L120.693 19.3636H123.863L127.875 31H125.238L122.324 22.0227H122.233L119.312 31ZM119.148 26.4261H125.375V28.3466H119.148V26.4261ZM128.867 31V19.3636H133.458C134.337 19.3636 135.087 19.5208 135.708 19.8352C136.333 20.1458 136.809 20.5871 137.134 21.1591C137.464 21.7273 137.629 22.3958 137.629 23.1648C137.629 23.9375 137.462 24.6023 137.129 25.1591C136.795 25.7121 136.312 26.1364 135.68 26.4318C135.051 26.7273 134.29 26.875 133.396 26.875H130.322V24.8977H132.998C133.468 24.8977 133.858 24.8333 134.169 24.7045C134.479 24.5758 134.71 24.3826 134.862 24.125C135.017 23.8674 135.095 23.5473 135.095 23.1648C135.095 22.7784 135.017 22.4527 134.862 22.1875C134.71 21.9223 134.477 21.7216 134.163 21.5852C133.852 21.4451 133.46 21.375 132.987 21.375H131.328V31H128.867ZM135.151 25.7045L138.044 31H135.328L132.498 25.7045H135.151Z" fill="#FFD012"/>
<path d="M47.9563 24.3744C47.5657 24.7649 47.5657 25.3981 47.9563 25.7886L54.3202 32.1525C54.7108 32.5431 55.3439 32.5431 55.7344 32.1525C56.125 31.762 56.125 31.1289 55.7344 30.7383L50.0776 25.0815L55.7344 19.4246C56.125 19.0341 56.125 18.4009 55.7344 18.0104C55.3439 17.6199 54.7108 17.6199 54.3202 18.0104L47.9563 24.3744ZM48.6634 26.0815H71.3026V24.0815H48.6634V26.0815Z" fill="#FFD012"/>
</svg>
