<svg width="187" height="51" viewBox="0 0 187 51" fill="none" xmlns="http://www.w3.org/2000/svg">
<rect x="0.331766" width="186.306" height="50.3704" fill="#725509"/>
<rect width="187" height="50" fill="#9D7612"/>
<path d="M47.8191 31H45.1828L49.1998 19.3636H52.3703L56.3816 31H53.7453L50.8305 22.0227H50.7396L47.8191 31ZM47.6544 26.4261H53.8816V28.3466H47.6544V26.4261ZM58.0233 19.3636L60.8358 28.2045H60.9438L63.762 19.3636H66.4893L62.4779 31H59.3074L55.2904 19.3636H58.0233ZM67.9406 31H65.3043L69.3213 19.3636H72.4918L76.5031 31H73.8668L70.952 22.0227H70.8611L67.9406 31ZM67.7759 26.4261H74.0031V28.3466H67.7759V26.4261ZM87.2287 19.3636V31H85.1037L80.0412 23.6761H79.9559V31H77.4957V19.3636H79.6548L84.6775 26.6818H84.7798V19.3636H87.2287ZM99.1204 23.4375H96.6317C96.5863 23.1155 96.4935 22.8295 96.3533 22.5795C96.2132 22.3258 96.0332 22.1098 95.8135 21.9318C95.5939 21.7538 95.3401 21.6174 95.0522 21.5227C94.7681 21.428 94.4594 21.3807 94.126 21.3807C93.5238 21.3807 92.9992 21.5303 92.5522 21.8295C92.1052 22.125 91.7586 22.5568 91.5124 23.125C91.2662 23.6894 91.1431 24.375 91.1431 25.1818C91.1431 26.0114 91.2662 26.7083 91.5124 27.2727C91.7624 27.8371 92.1109 28.2633 92.5579 28.5511C93.0048 28.839 93.5219 28.983 94.109 28.983C94.4385 28.983 94.7435 28.9394 95.0238 28.8523C95.3079 28.7652 95.5598 28.6383 95.7795 28.4716C95.9992 28.3011 96.181 28.0947 96.3249 27.8523C96.4726 27.6098 96.5749 27.3333 96.6317 27.0227L99.1204 27.0341C99.056 27.5682 98.895 28.0833 98.6374 28.5795C98.3836 29.072 98.0408 29.5133 97.609 29.9034C97.181 30.2898 96.6696 30.5966 96.0749 30.8239C95.484 31.0473 94.8154 31.1591 94.0692 31.1591C93.0314 31.1591 92.1033 30.9242 91.2851 30.4545C90.4707 29.9848 89.8268 29.3049 89.3533 28.4148C88.8836 27.5246 88.6488 26.447 88.6488 25.1818C88.6488 23.9129 88.8874 22.8333 89.3647 21.9432C89.842 21.053 90.4897 20.375 91.3079 19.9091C92.126 19.4394 93.0465 19.2045 94.0692 19.2045C94.7435 19.2045 95.3685 19.2992 95.9442 19.4886C96.5238 19.678 97.037 19.9545 97.484 20.3182C97.931 20.678 98.2946 21.1193 98.5749 21.642C98.859 22.1648 99.0408 22.7633 99.1204 23.4375ZM93.4613 30.9659H94.5749L94.484 31.4602C94.8742 31.5208 95.1923 31.6667 95.4385 31.8977C95.6885 32.1288 95.8154 32.4432 95.8192 32.8409C95.823 33.4053 95.5617 33.8542 95.0351 34.1875C94.5086 34.5246 93.77 34.6932 92.8192 34.6932L92.7965 33.6136C93.2738 33.6136 93.6469 33.5549 93.9158 33.4375C94.1885 33.3239 94.3306 33.1458 94.342 32.9034C94.3495 32.6723 94.2605 32.4962 94.0749 32.375C93.8893 32.2538 93.5995 32.1686 93.2056 32.1193L93.4613 30.9659ZM102.264 31H99.6271L103.644 19.3636H106.815L110.826 31H108.19L105.275 22.0227H105.184L102.264 31ZM102.099 26.4261H108.326V28.3466H102.099V26.4261ZM111.819 31V19.3636H116.409C117.288 19.3636 118.038 19.5208 118.659 19.8352C119.284 20.1458 119.76 20.5871 120.086 21.1591C120.415 21.7273 120.58 22.3958 120.58 23.1648C120.58 23.9375 120.413 24.6023 120.08 25.1591C119.747 25.7121 119.264 26.1364 118.631 26.4318C118.002 26.7273 117.241 26.875 116.347 26.875H113.273V24.8977H115.949C116.419 24.8977 116.809 24.8333 117.12 24.7045C117.43 24.5758 117.661 24.3826 117.813 24.125C117.968 23.8674 118.046 23.5473 118.046 23.1648C118.046 22.7784 117.968 22.4527 117.813 22.1875C117.661 21.9223 117.428 21.7216 117.114 21.5852C116.803 21.4451 116.411 21.375 115.938 21.375H114.279V31H111.819ZM118.103 25.7045L120.995 31H118.279L115.449 25.7045H118.103Z" fill="#FFD012"/>
<path d="M148.639 25.7071C149.03 25.3166 149.03 24.6834 148.639 24.2929L142.275 17.9289C141.884 17.5384 141.251 17.5384 140.861 17.9289C140.47 18.3195 140.47 18.9526 140.861 19.3431L146.518 25L140.861 30.6569C140.47 31.0474 140.47 31.6805 140.861 32.0711C141.251 32.4616 141.884 32.4616 142.275 32.0711L148.639 25.7071ZM125.641 26H147.932V24H125.641V26Z" fill="#FFD012"/>
</svg>
