<svg width="164" height="24" viewBox="0 0 164 24" fill="none" xmlns="http://www.w3.org/2000/svg">
<rect width="164" height="24" rx="7" fill="#9D7612"/>
<path d="M58.5344 8.49651H60.1467L62.3057 13.7664H62.391L64.5501 8.49651H66.1623V15.7692H64.8981V10.7728H64.8306L62.8207 15.7479H61.8761L59.8661 10.7621H59.7986V15.7692H58.5344V8.49651ZM68.4509 15.7692H67.0446L69.605 8.49651H71.2314L73.7953 15.7692H72.3891L70.4466 9.98799H70.3898L68.4509 15.7692ZM68.4971 12.9177H72.3323V13.9759H68.4971V12.9177ZM69.3777 7.77918L68.5965 7.76143C68.5965 7.34003 68.7054 7.00977 68.9232 6.77066C69.1434 6.53155 69.4121 6.412 69.7293 6.412C69.8832 6.412 70.0169 6.43804 70.1306 6.49012C70.2466 6.53984 70.3519 6.59784 70.4466 6.66413C70.5413 6.73042 70.6348 6.7896 70.7272 6.84168C70.8195 6.8914 70.9213 6.91626 71.0326 6.91626C71.1675 6.91626 71.274 6.86536 71.3522 6.76356C71.4327 6.66176 71.4741 6.53155 71.4765 6.37293L72.24 6.40489C72.2376 6.82866 72.1275 7.15774 71.9097 7.39211C71.6919 7.62412 71.4256 7.74131 71.1107 7.74367C70.9379 7.74367 70.7935 7.71882 70.6775 7.6691C70.5614 7.61702 70.4596 7.55783 70.3721 7.49154C70.2868 7.42525 70.2004 7.36725 70.1128 7.31754C70.0252 7.26545 69.9222 7.23941 69.8039 7.23941C69.6784 7.23941 69.5754 7.28913 69.4949 7.38856C69.4168 7.48799 69.3777 7.6182 69.3777 7.77918ZM80.8301 12.1329C80.8301 12.9165 80.6833 13.5877 80.3897 14.1464C80.0985 14.7027 79.7008 15.1289 79.1965 15.4248C78.6946 15.7207 78.1253 15.8687 77.4884 15.8687C76.8516 15.8687 76.281 15.7207 75.7768 15.4248C75.2749 15.1265 74.8772 14.6992 74.5836 14.1428C74.2924 13.5841 74.1468 12.9141 74.1468 12.1329C74.1468 11.3493 74.2924 10.6793 74.5836 10.1229C74.8772 9.56422 75.2749 9.1369 75.7768 8.84097C76.281 8.54505 76.8516 8.39708 77.4884 8.39708C78.1253 8.39708 78.6946 8.54505 79.1965 8.84097C79.7008 9.1369 80.0985 9.56422 80.3897 10.1229C80.6833 10.6793 80.8301 11.3493 80.8301 12.1329ZM79.5055 12.1329C79.5055 11.5813 79.4191 11.1161 79.2462 10.7373C79.0758 10.3561 78.839 10.0685 78.536 9.87436C78.233 9.67786 77.8838 9.57961 77.4884 9.57961C77.0931 9.57961 76.7439 9.67786 76.4408 9.87436C76.1378 10.0685 75.8999 10.3561 75.7271 10.7373C75.5566 11.1161 75.4714 11.5813 75.4714 12.1329C75.4714 12.6845 75.5566 13.1509 75.7271 13.532C75.8999 13.9108 76.1378 14.1985 76.4408 14.395C76.7439 14.5891 77.0931 14.6861 77.4884 14.6861C77.8838 14.6861 78.233 14.5891 78.536 14.395C78.839 14.1985 79.0758 13.9108 79.2462 13.532C79.4191 13.1509 79.5055 12.6845 79.5055 12.1329ZM84.3961 15.7692V8.49651H89.0552V9.60092H85.7136V11.5753H88.7356V12.6798H85.7136V15.7692H84.3961ZM91.4929 8.49651V15.7692H90.1755V8.49651H91.4929ZM93.9405 8.49651L95.542 11.1599H95.5988L97.2075 8.49651H98.7096L96.4689 12.1329L98.7451 15.7692H97.2181L95.5988 13.1236H95.542L93.9227 15.7692H92.4028L94.7004 12.1329L92.4312 8.49651H93.9405ZM100.598 15.7692H99.1916L101.752 8.49651H103.378L105.942 15.7692H104.536L102.594 9.98799H102.537L100.598 15.7692ZM100.644 12.9177H104.479V13.9759H100.644V12.9177Z" fill="white"/>
</svg>
