<svg width="164" height="24" viewBox="0 0 164 24" fill="none" xmlns="http://www.w3.org/2000/svg">
<rect width="164" height="24" rx="7" fill="#9D7612"/>
<path d="M50.8664 8.49651H52.4786L54.6377 13.7664H54.723L56.882 8.49651H58.4943V15.7692H57.2301V10.7728H57.1626L55.1526 15.7479H54.208L52.1981 10.7621H52.1306V15.7692H50.8664V8.49651ZM60.7829 15.7692H59.3766L61.937 8.49651H63.5634L66.1273 15.7692H64.7211L62.7786 9.98799H62.7218L60.7829 15.7692ZM60.829 12.9177H64.6643V13.9759H60.829V12.9177ZM70.8405 10.4958C70.8073 10.1857 70.6677 9.94419 70.4214 9.77137C70.1776 9.59855 69.8604 9.51214 69.4697 9.51214C69.1951 9.51214 68.9596 9.55357 68.7631 9.63643C68.5666 9.71929 68.4162 9.83174 68.3121 9.97379C68.2079 10.1158 68.1546 10.278 68.1523 10.4603C68.1523 10.6118 68.1866 10.7432 68.2553 10.8545C68.3263 10.9657 68.4222 11.0604 68.5429 11.1386C68.6636 11.2143 68.7974 11.2782 68.9442 11.3303C69.091 11.3824 69.2389 11.4262 69.3881 11.4617L70.0699 11.6322C70.3445 11.6961 70.6085 11.7825 70.8618 11.8914C71.1175 12.0003 71.3459 12.1376 71.5472 12.3033C71.7508 12.4691 71.9117 12.6691 72.0301 12.9035C72.1485 13.1378 72.2077 13.4125 72.2077 13.7273C72.2077 14.1535 72.0988 14.5287 71.881 14.853C71.6632 15.175 71.3483 15.4271 70.9364 15.6094C70.5268 15.7894 70.0308 15.8793 69.4484 15.8793C68.8826 15.8793 68.3914 15.7917 67.9747 15.6165C67.5604 15.4414 67.2361 15.1857 67.0017 14.8495C66.7697 14.5133 66.6442 14.1038 66.6253 13.6208H67.9214C67.9404 13.8741 68.0185 14.0848 68.1558 14.2529C68.2931 14.421 68.4719 14.5465 68.692 14.6293C68.9146 14.7122 69.1632 14.7536 69.4378 14.7536C69.7242 14.7536 69.9752 14.711 70.1906 14.6258C70.4084 14.5382 70.5789 14.4174 70.702 14.2636C70.8251 14.1073 70.8878 13.925 70.8902 13.7167C70.8878 13.5273 70.8322 13.371 70.7233 13.2479C70.6144 13.1225 70.4617 13.0183 70.2652 12.9354C70.0711 12.8502 69.8438 12.7744 69.5834 12.7082L68.756 12.4951C68.157 12.3412 67.6835 12.108 67.3355 11.7955C66.9899 11.4807 66.817 11.0628 66.817 10.542C66.817 10.1135 66.933 9.73823 67.1651 9.41626C67.3994 9.09429 67.7178 8.84453 68.1203 8.66697C68.5228 8.48704 68.9785 8.39708 69.4875 8.39708C70.0036 8.39708 70.4558 8.48704 70.844 8.66697C71.2347 8.84453 71.5412 9.09192 71.7638 9.40916C71.9863 9.72402 72.1011 10.0862 72.1082 10.4958H70.8405ZM74.119 15.7692H72.7127L75.2731 8.49651H76.8995L79.4634 15.7692H78.0572L76.1147 9.98799H76.0579L74.119 15.7692ZM74.1651 12.9177H78.0004V13.9759H74.1651V12.9177ZM86.3179 8.49651V15.7692H85.146L81.7192 10.8154H81.6588V15.7692H80.3413V8.49651H81.5203L84.9436 13.4539H85.0075V8.49651H86.3179ZM88.9909 8.49651V15.7692H87.6735V8.49651H88.9909ZM90.3376 15.7692V8.49651H95.0677V9.60092H91.6551V11.5753H94.8227V12.6798H91.6551V14.6648H95.0961V15.7692H90.3376ZM96.3318 15.7692V8.49651H97.6493V14.6648H100.852V15.7692H96.3318ZM101.916 15.7692V8.49651H103.233V14.6648H106.436V15.7692H101.916ZM113.715 12.1329C113.715 12.9165 113.569 13.5877 113.275 14.1464C112.984 14.7027 112.586 15.1289 112.082 15.4248C111.58 15.7207 111.011 15.8687 110.374 15.8687C109.737 15.8687 109.166 15.7207 108.662 15.4248C108.16 15.1265 107.762 14.6992 107.469 14.1428C107.178 13.5841 107.032 12.9141 107.032 12.1329C107.032 11.3493 107.178 10.6793 107.469 10.1229C107.762 9.56422 108.16 9.1369 108.662 8.84097C109.166 8.54505 109.737 8.39708 110.374 8.39708C111.011 8.39708 111.58 8.54505 112.082 8.84097C112.586 9.1369 112.984 9.56422 113.275 10.1229C113.569 10.6793 113.715 11.3493 113.715 12.1329ZM112.391 12.1329C112.391 11.5813 112.304 11.1161 112.132 10.7373C111.961 10.3561 111.724 10.0685 111.421 9.87436C111.118 9.67786 110.769 9.57961 110.374 9.57961C109.978 9.57961 109.629 9.67786 109.326 9.87436C109.023 10.0685 108.785 10.3561 108.612 10.7373C108.442 11.1161 108.357 11.5813 108.357 12.1329C108.357 12.6845 108.442 13.1509 108.612 13.532C108.785 13.9108 109.023 14.1985 109.326 14.395C109.629 14.5891 109.978 14.6861 110.374 14.6861C110.769 14.6861 111.118 14.5891 111.421 14.395C111.724 14.1985 111.961 13.9108 112.132 13.532C112.304 13.1509 112.391 12.6845 112.391 12.1329Z" fill="white"/>
</svg>
